HIERARCHY
ROOT Hips
{
	OFFSET -0.001795 -0.223333 0.028219
	CHANNELS 6 Xposition Yposition Zposition Zrotation Yrotation Xrotation 
	JOINT LeftUpLeg
	{
		OFFSET 0.069520 -0.091406 -0.006815
		CHANNELS 3 Zrotation Yrotation Xrotation
		JOINT LeftLeg
		{
			OFFSET 0.034277 -0.375199 -0.004496
			CHANNELS 3 Zrotation Yrotation Xrotation
			JOINT LeftFoot
			{
				OFFSET -0.013596 -0.397961 -0.043693
				CHANNELS 3 Zrotation Yrotation Xrotation
				JOINT LeftToe
				{
					OFFSET 0.026358 -0.055791 0.119288
					CHANNELS 3 Zrotation Yrotation Xrotation
					End Site
					{
						OFFSET 0.000000 0.000000 0.000000
					}
				}
			}
		}
	}
	JOINT RightUpLeg
	{
		OFFSET -0.067670 -0.090522 -0.004320
		CHANNELS 3 Zrotation Yrotation Xrotation
		JOINT RightLeg
		{
			OFFSET -0.038290 -0.382569 -0.008850
			CHANNELS 3 Zrotation Yrotation Xrotation
			JOINT RightFoot
			{
				OFFSET 0.015774 -0.398415 -0.042312
				CHANNELS 3 Zrotation Yrotation Xrotation
				JOINT RightToe
				{
					OFFSET -0.025372 -0.048144 0.123348
					CHANNELS 3 Zrotation Yrotation Xrotation
					End Site
					{
						OFFSET 0.000000 0.000000 0.000000
					}
				}
			}
		}
	}
	JOINT Spine
	{
		OFFSET -0.002533 0.108963 -0.026696
		CHANNELS 3 Zrotation Yrotation Xrotation
		JOINT Spine1
		{
			OFFSET 0.005487 0.135180 0.001092
			CHANNELS 3 Zrotation Yrotation Xrotation
			JOINT Spine2
			{
				OFFSET 0.001457 0.052922 0.025425
				CHANNELS 3 Zrotation Yrotation Xrotation
				JOINT Neck
				{
					OFFSET -0.002778 0.213870 -0.042857
					CHANNELS 3 Zrotation Yrotation Xrotation
					JOINT Head
					{
						OFFSET 0.005152 0.064970 0.051349
						CHANNELS 3 Zrotation Yrotation Xrotation
						End Site
						{
							OFFSET 0.000000 0.000000 0.000000
						}
					}
				}
				JOINT LeftShoulder
				{
					OFFSET 0.078845 0.121749 -0.034090
					CHANNELS 3 Zrotation Yrotation Xrotation
					JOINT LeftArm
					{
						OFFSET 0.090977 0.030469 -0.008868
						CHANNELS 3 Zrotation Yrotation Xrotation
						JOINT LeftForeArm
						{
							OFFSET 0.259612 -0.012772 -0.027456
							CHANNELS 3 Zrotation Yrotation Xrotation
							JOINT LeftHand
							{
								OFFSET 0.249234 0.008986 -0.001171
								CHANNELS 3 Zrotation Yrotation Xrotation
								End Site
								{
									OFFSET 0.000000 0.000000 0.000000
								}
							}
						}
					}
				}
				JOINT RightShoulder
				{
					OFFSET -0.081759 0.118833 -0.038615
					CHANNELS 3 Zrotation Yrotation Xrotation
					JOINT RightArm
					{
						OFFSET -0.096012 0.032551 -0.009143
						CHANNELS 3 Zrotation Yrotation Xrotation
						JOINT RightForeArm
						{
							OFFSET -0.253742 -0.013329 -0.021401
							CHANNELS 3 Zrotation Yrotation Xrotation
							JOINT RightHand
							{
								OFFSET -0.255298 0.007772 -0.005559
								CHANNELS 3 Zrotation Yrotation Xrotation
								End Site
								{
									OFFSET 0.000000 0.000000 0.000000
								}
							}
						}
					}
				}
			}
		}
	}
}
MOTION
Frames: 15
Frame Time: 0.050000
-0.160731 0.941084 -0.355886 -4.860675 8.183959 -3.251143 6.673590 -0.169036 0.127715 -1.494951 0.088725 1.982498 5.882850 13.345132 5.731603 0.000000 0.000000 0.000000 -4.959416 0.628841 -12.804098 1.767255 -0.185188 21.585736 -2.860217 -8.743608 8.022622 0.000000 0.000000 0.000000 3.326842 -0.606912 7.994633 -1.306249 0.708403 -1.760337 -3.602899 7.449772 10.407391 11.118449 -3.239125 -21.880521 0.000000 0.000000 0.000000 -17.396251 -15.886021 3.296840 -41.941350 -13.639383 0.154468 -7.667282 -22.590080 1.863428 0.000000 0.000000 0.000000 20.033151 4.192471 4.104769 56.723349 13.309986 -0.298131 5.094678 19.224451 1.707410 0.000000 0.000000 0.000000 
-0.149563 0.942820 -0.357260 -5.256345 7.409671 -3.432733 5.945147 -0.111251 0.870323 -1.242345 0.101505 0.609780 6.190672 14.113704 6.954865 0.000000 0.000000 0.000000 -1.652090 1.012187 -12.518259 1.721802 -0.117365 20.427853 -3.024194 -9.002607 7.188047 0.000000 0.000000 0.000000 3.053242 -0.598534 8.188818 -0.744467 0.455925 -2.027182 -4.221467 7.332472 9.216814 11.692925 -4.060207 -19.824956 0.000000 0.000000 0.000000 -17.760338 -15.892108 3.333731 -41.906982 -12.669992 -0.076767 -7.174364 -22.730021 1.789603 0.000000 0.000000 0.000000 20.061143 3.804013 3.736188 57.491529 12.262345 -0.624603 6.492563 20.576951 2.098784 0.000000 0.000000 0.000000 
-0.141187 0.943711 -0.357264 -4.830042 7.308016 -3.060383 4.234158 -0.045677 1.078275 -0.559781 0.064195 -0.358795 5.712595 13.356687 7.114864 0.000000 0.000000 0.000000 0.483190 1.181870 -11.793066 0.618451 0.224768 17.926698 -2.044778 -6.683158 6.049052 0.000000 0.000000 0.000000 2.815489 -0.564305 7.951527 -1.679477 0.923805 -3.340238 -3.830204 6.071792 9.360792 11.012682 -4.163440 -18.255821 0.000000 0.000000 0.000000 -19.149044 -14.468427 2.884577 -41.038631 -12.848121 -0.093826 -8.104452 -21.243901 1.920768 0.000000 0.000000 0.000000 20.596385 4.367720 3.771947 57.552880 11.577062 -0.997605 7.010276 20.555348 2.154232 0.000000 0.000000 0.000000 
-0.135363 0.943732 -0.356146 -4.877959 6.674172 -3.013871 3.799495 0.005926 1.709039 -1.024351 0.119272 -0.793163 6.326169 14.244648 6.610926 0.000000 0.000000 0.000000 1.901029 1.146730 -10.090234 -0.656590 0.540135 14.275727 -1.337044 -5.369590 6.824972 0.000000 0.000000 0.000000 2.931504 -0.452631 6.443297 -1.967229 1.031533 -2.747660 -4.092512 7.145339 9.323724 10.911581 -4.107675 -17.802254 0.000000 0.000000 0.000000 -19.092610 -14.402843 2.615845 -42.463282 -12.459216 -0.166645 -8.387207 -20.779659 1.895354 0.000000 0.000000 0.000000 21.319654 3.641152 3.634788 56.920047 11.553061 -1.115481 8.086269 21.214331 2.454391 0.000000 0.000000 0.000000 
-0.132198 0.942887 -0.354949 -4.401632 6.703895 -3.090346 2.911036 0.091216 2.625679 -1.286586 0.180428 -2.503527 6.353500 14.465771 7.547675 0.000000 0.000000 0.000000 1.744664 0.864549 -7.590959 -2.050452 0.719805 9.895894 -1.125312 -5.214561 8.023794 0.000000 0.000000 0.000000 2.836314 -0.396472 5.786930 -2.560328 1.308439 -3.228475 -4.327100 7.384163 9.887439 10.782398 -4.150752 -17.180785 0.000000 0.000000 0.000000 -19.520044 -14.298335 2.461955 -42.667682 -12.175453 -0.287724 -9.258999 -19.896320 1.970501 0.000000 0.000000 0.000000 21.534898 3.316296 3.571415 57.544978 11.558142 -1.161128 8.471046 21.816470 2.635168 0.000000 0.000000 0.000000 
-0.131165 0.941725 -0.354676 -4.241368 6.454258 -2.909894 2.566684 0.098177 2.462044 -1.306602 0.186761 -2.710252 6.526444 14.685233 7.243971 0.000000 0.000000 0.000000 1.470237 0.779954 -6.970231 -2.435731 0.700125 7.696184 -0.461111 -4.107538 8.984086 0.000000 0.000000 0.000000 2.702736 -0.344608 5.150064 -2.902300 1.449482 -2.739434 -4.421092 7.990129 9.485993 11.253432 -4.501600 -16.717644 0.000000 0.000000 0.000000 -19.482706 -14.117226 2.210552 -43.280261 -11.869515 -0.329160 -9.603515 -19.972580 2.010094 0.000000 0.000000 0.000000 21.474465 2.799502 3.377795 57.396768 11.579346 -1.121006 9.487712 22.451945 2.946050 0.000000 0.000000 0.000000 
-0.131550 0.941309 -0.355298 -4.302977 5.902466 -3.209226 2.397997 0.126072 2.704476 -1.331093 0.185895 -2.485873 7.170061 15.657486 6.816649 0.000000 0.000000 0.000000 0.700069 0.688282 -6.489083 -1.744468 0.536313 6.794852 -0.504203 -4.455609 9.673206 0.000000 0.000000 0.000000 2.705195 -0.329981 4.999610 -3.160388 1.568139 -3.156926 -4.241540 8.795850 10.298153 11.252117 -4.340773 -17.230137 0.000000 0.000000 0.000000 -19.466906 -13.702963 1.877430 -44.126714 -11.654117 -0.465723 -9.864832 -20.623226 2.094376 0.000000 0.000000 0.000000 21.648566 2.864353 3.601497 56.891713 12.241435 -0.955375 9.349825 22.580138 2.956421 0.000000 0.000000 0.000000 
-0.132829 0.942200 -0.356142 -4.414406 5.363689 -3.397549 2.368394 0.148984 2.968389 -1.299458 0.188658 -2.649752 7.306676 15.966660 7.411063 0.000000 0.000000 0.000000 -0.248729 0.648426 -6.591805 -0.892293 0.383215 6.678508 -0.051999 -3.923470 10.745272 0.000000 0.000000 0.000000 2.615145 -0.328741 5.076851 -3.323380 1.640436 -3.556885 -3.930444 9.291164 11.144016 11.711955 -4.631479 -17.290775 0.000000 0.000000 0.000000 -19.776852 -13.405503 1.658914 -44.426679 -11.499778 -0.570747 -10.044441 -20.467506 2.108267 0.000000 0.000000 0.000000 21.527701 3.219416 3.868551 57.114791 12.733516 -0.777558 9.201939 22.930613 2.991630 0.000000 0.000000 0.000000 
-0.134964 0.942659 -0.356044 -4.555578 5.370689 -3.460076 2.778466 0.136524 3.056042 -1.396431 0.195373 -2.624983 7.199878 15.790304 7.392149 0.000000 0.000000 0.000000 -0.917221 0.653641 -7.062275 -0.626514 0.368925 7.623657 -0.230620 -4.280096 10.744853 0.000000 0.000000 0.000000 2.742830 -0.333362 5.068379 -3.517829 1.724089 -3.027697 -3.762392 9.205060 11.187170 11.944787 -4.762894 -17.449057 0.000000 0.000000 0.000000 -20.002864 -13.067957 1.494225 -44.626393 -11.458741 -0.603978 -10.052080 -20.621336 2.130262 0.000000 0.000000 0.000000 21.673028 3.236348 3.860937 56.679686 13.278312 -0.560394 8.877523 22.820129 2.904667 0.000000 0.000000 0.000000 
-0.138313 0.942917 -0.354702 -4.509302 4.957546 -3.604878 3.168857 0.163420 3.760078 -1.619923 0.218596 -2.892490 7.323852 15.908227 6.877659 0.000000 0.000000 0.000000 -2.078537 0.627094 -7.595387 -0.184839 0.337041 9.131120 -0.168172 -4.095256 10.319508 0.000000 0.000000 0.000000 2.691568 -0.334817 5.156879 -3.626452 1.770654 -3.014781 -3.390844 9.446910 11.574896 12.246537 -4.878761 -17.857843 0.000000 0.000000 0.000000 -20.093219 -12.869700 1.417633 -44.559346 -11.403178 -0.670119 -10.339728 -20.280963 2.154709 0.000000 0.000000 0.000000 21.833062 3.500295 4.036037 56.123958 13.553856 -0.534038 8.740512 22.567070 2.830985 0.000000 0.000000 0.000000 
-0.143373 0.942789 -0.352156 -4.581959 4.969172 -3.648069 3.702860 0.164791 4.325580 -1.816503 0.240734 -3.382301 7.256409 15.801045 6.918173 0.000000 0.000000 0.000000 -2.776042 0.592572 -7.751669 0.028906 0.320735 10.090754 -0.424212 -4.507989 9.961556 0.000000 0.000000 0.000000 2.841461 -0.330035 5.004089 -3.512197 1.715170 -2.034542 -3.470959 9.277563 10.786405 12.368193 -5.079685 -17.385114 0.000000 0.000000 0.000000 -19.917881 -12.918303 1.498710 -44.741636 -10.987626 -0.791063 -10.497911 -20.890987 2.243445 0.000000 0.000000 0.000000 22.383735 3.097203 3.770474 55.399154 13.146210 -0.737238 9.100292 22.112059 2.811758 0.000000 0.000000 0.000000 
-0.150466 0.941682 -0.348503 -4.592222 4.858641 -3.965014 4.094685 0.185459 5.150389 -1.836773 0.246265 -3.601318 7.290771 15.702471 5.916362 0.000000 0.000000 0.000000 -3.683879 0.513239 -7.507197 0.247027 0.288757 10.524767 -0.182061 -3.811412 9.202277 0.000000 0.000000 0.000000 2.903504 -0.351967 5.326313 -3.404887 1.666969 -1.933065 -3.172306 9.227184 10.705573 12.562163 -5.118647 -17.805681 0.000000 0.000000 0.000000 -20.089502 -12.364392 1.235264 -44.700343 -11.026843 -0.788836 -10.399748 -21.032108 2.245972 0.000000 0.000000 0.000000 22.398891 3.449324 3.924775 55.009576 13.020685 -0.806013 8.660647 21.483188 2.611111 0.000000 0.000000 0.000000 
-0.159659 0.940184 -0.343475 -4.318873 4.899186 -3.841016 4.561541 0.169603 5.502146 -2.014183 0.256279 -3.471262 7.418239 15.813811 5.244892 0.000000 0.000000 0.000000 -4.493590 0.464691 -7.586622 0.092618 0.320180 10.468345 -0.331340 -4.227973 9.575446 0.000000 0.000000 0.000000 3.032626 -0.352950 5.248645 -3.281644 1.607498 -1.665844 -3.222049 9.024146 10.203953 12.430515 -5.059431 -17.721687 0.000000 0.000000 0.000000 -19.641248 -12.149441 1.227700 -44.762234 -10.704182 -0.912335 -10.636953 -21.951861 2.379792 0.000000 0.000000 0.000000 22.310603 3.100501 3.626584 54.984895 12.499438 -0.977835 8.158725 21.170535 2.470321 0.000000 0.000000 0.000000 
-0.171170 0.937615 -0.337053 -3.650130 5.053111 -3.749092 4.703476 0.170403 5.794377 -1.892422 0.240180 -2.972523 7.275223 15.404190 4.234175 0.000000 0.000000 0.000000 -5.538429 0.374716 -7.229994 -0.303146 0.394600 10.182148 -0.196307 -3.866010 9.308360 0.000000 0.000000 0.000000 2.912864 -0.356508 5.374083 -3.019861 1.486032 -1.621714 -3.269296 8.999578 9.919800 12.469027 -4.828881 -18.693988 0.000000 0.000000 0.000000 -19.758349 -12.048783 1.144523 -44.969413 -11.206645 -0.712143 -10.137712 -21.918730 2.281815 0.000000 0.000000 0.000000 22.252520 3.039796 3.574341 54.692035 12.425767 -0.990880 7.936137 21.116382 2.417676 0.000000 0.000000 0.000000 
-0.185536 0.935115 -0.329249 -2.956843 4.985226 -3.866489 5.061451 0.162938 6.125548 -1.806765 0.221232 -2.165592 7.167544 15.060148 3.304406 0.000000 0.000000 0.000000 -6.220368 0.301027 -6.582711 -0.808759 0.496693 10.015828 0.156598 -3.050055 8.963761 0.000000 0.000000 0.000000 2.990421 -0.359532 5.407833 -2.797246 1.377665 -1.209402 -3.556504 8.995777 9.327547 12.352510 -4.850335 -18.249758 0.000000 0.000000 0.000000 -19.381766 -12.067846 1.198650 -45.220086 -11.435199 -0.619617 -9.807600 -22.067420 2.228890 0.000000 0.000000 0.000000 22.115894 3.074696 3.547596 54.515867 12.843800 -0.739939 7.119686 21.008408 2.254530 0.000000 0.000000 0.000000 
